<svg width="300" height="500" viewBox="0 0 300 500" fill="none" xmlns="http://www.w3.org/2000/svg">
  <path 
    d="M150 20 
       C 150 20, 180 60, 200 100
       C 220 140, 220 180, 180 200
       C 140 220, 100 200, 80 160
       C 60 120, 80 80, 120 60
       C 130 50, 140 30, 150 20
       M 150 20
       C 150 20, 120 60, 100 100
       C 80 140, 80 180, 120 200
       C 160 220, 200 200, 220 160
       C 240 120, 220 80, 180 60
       C 170 50, 160 30, 150 20"
    fill="none"
    stroke="#FF1493"
    stroke-width="2"
  />
  <path 
    d="M150 200 L150 480" 
    stroke="#FF1493" 
    stroke-width="2"
  />
  <path 
    d="M140 300 L160 300 M130 350 L170 350" 
    stroke="#FF1493" 
    stroke-width="2"
  />
</svg>
